# xmcd
#
# Track frame offsets:
#	187
#	14220
#	28987
#	42137
#	54770
#	67300
#	80975
#	95962
#	111625
#	126997
#	139812
#	152612
#	169342
#	185262
#	200237
#	213730
#	227320
#	241100
#	254737
#	266557
#	280850
#
# Disc length: 3938 seconds
# Revision: 0
# Processed by: cddbd v1.5.2PL0 Copyright (c) Steve Scherf et al.
# Submitted via: dBpowerAMP V12.0
#
DISCID=4f0f6015
DTITLE=The Carter Family - The Original Carter Family [CD2]
DYEAR=1992
DGENRE=Country
TTITLE0=I'm Thinking Tonight Of My Blue Eyes
TTITLE1=Little Moses
TTITLE2=Lulu Wall
TTITLE3=The Grave On The Green Hillside
TTITLE4=Don't Forget This Song
TTITLE5=The Foggy Mountain Top
TTITLE6=Bring Back My Blue Eyed Boy To Me
TTITLE7=Daimonds In The Rough
TTITLE8=Eingine One-Forty-Three
TTITLE9=The Homestead On The Farm
TTITLE10=The Cyclone On Ryecove
TTITLE11=Motherless Children
TTITLE12=When The Roses Bloom In Dixieland
TTITLE13=No Telephone In Heaven
TTITLE14=Western Hobo
TTITLE15=Carter's Blues
TTITLE16=Wabash Cannonball
TTITLE17=A Distant Land To Roam
TTITLE18=Jimmie Brown, The Newsboy
TTITLE19=Kitty Waltz
TTITLE20=Fond Affection
EXTD=
EXTT0=
EXTT1=
EXTT2=
EXTT3=
EXTT4=
EXTT5=
EXTT6=
EXTT7=
EXTT8=
EXTT9=
EXTT10=
EXTT11=
EXTT12=
EXTT13=
EXTT14=
EXTT15=
EXTT16=
EXTT17=
EXTT18=
EXTT19=
EXTT20=
PLAYORDER=
